# xmcd
#
# Track frame offsets: 
#        151
#        18318
#        35359
#        55408
#        71701
#        89652
#        106185
#        124246
#        141395
#        158900
#        180221
#        195326
#        216529
#        235034
#
# Disc length: 3354 seconds
#
# Revision: 1
# Processed by: cddbd v1.5.2PL0 Copyright (c) Steve Scherf et al.
# Submitted via: ExactAudioCopy v0.95b4
#
DISCID=c40d180e
DTITLE=Various Artist - รวมเพลงดังพันล้าน ชุด 12
DYEAR=2006
DGENRE=Country
TTITLE0=พี่แดงคนเดิม
TTITLE1=๙๙/๗๐
TTITLE2=เต้ยโศก
TTITLE3=จีบน้องเฮ็ดหยัง
TTITLE4=กัณฑ์เทศน์โศก
TTITLE5=อย่าถามเรื่องเก่า
TTITLE6=โจ๋ไว้ก่อน
TTITLE7=แม่หม้ายรำพัน
TTITLE8=หมอลำม่วย
TTITLE9=หนุ่มหมอลำซิ่ง
TTITLE10=จอบยามไซ
TTITLE11=ลมส่าคนหลายใจ
TTITLE12=ถามข่าวผู้สาวเก่า
TTITLE13=พ่ายรักที่ลำนางรอง
EXTD=
EXTT0=
EXTT1=
EXTT2=
EXTT3=
EXTT4=
EXTT5=
EXTT6=
EXTT7=
EXTT8=
EXTT9=
EXTT10=
EXTT11=
EXTT12=
EXTT13=
PLAYORDER=
